<?xml version="1.0" encoding="UTF-8"?>
<!--Generator: Apple Native CoreSVG 175.5-->
<!DOCTYPE svg
PUBLIC "-//W3C//DTD SVG 1.1//EN"
       "http://www.w3.org/Graphics/SVG/1.1/DTD/svg11.dtd">
<svg version="1.1" xmlns="http://www.w3.org/2000/svg" xmlns:xlink="http://www.w3.org/1999/xlink" width="3300" height="2200">
 <!--glyph: "uni1006F9.medium", point size: 100.0, font version: "18.0d12e2", template writer version: "101"-->
 <style>.monochrome-0 {fill:#000000}

.SFSymbolsPreview000000 {fill:#000000;opacity:1.0}
</style>
 <g id="Notes">
  <rect height="2200" id="artboard" style="fill:white;opacity:1" width="3300" x="0" y="0"/>
  <line style="fill:none;stroke:black;opacity:1;stroke-width:0.5;" x1="263" x2="3036" y1="292" y2="292"/>
  <text style="stroke:none;fill:black;font-family:sans-serif;font-size:13;font-weight:bold;" transform="matrix(1 0 0 1 263 322)">Weight/Scale Variations</text>
  <text style="stroke:none;fill:black;font-family:sans-serif;font-size:13;text-anchor:middle;" transform="matrix(1 0 0 1 559.711 322)">Ultralight</text>
  <text style="stroke:none;fill:black;font-family:sans-serif;font-size:13;text-anchor:middle;" transform="matrix(1 0 0 1 856.422 322)">Thin</text>
  <text style="stroke:none;fill:black;font-family:sans-serif;font-size:13;text-anchor:middle;" transform="matrix(1 0 0 1 1153.13 322)">Light</text>
  <text style="stroke:none;fill:black;font-family:sans-serif;font-size:13;text-anchor:middle;" transform="matrix(1 0 0 1 1449.84 322)">Regular</text>
  <text style="stroke:none;fill:black;font-family:sans-serif;font-size:13;text-anchor:middle;" transform="matrix(1 0 0 1 1746.56 322)">Medium</text>
  <text style="stroke:none;fill:black;font-family:sans-serif;font-size:13;text-anchor:middle;" transform="matrix(1 0 0 1 2043.27 322)">Semibold</text>
  <text style="stroke:none;fill:black;font-family:sans-serif;font-size:13;text-anchor:middle;" transform="matrix(1 0 0 1 2339.98 322)">Bold</text>
  <text style="stroke:none;fill:black;font-family:sans-serif;font-size:13;text-anchor:middle;" transform="matrix(1 0 0 1 2636.69 322)">Heavy</text>
  <text style="stroke:none;fill:black;font-family:sans-serif;font-size:13;text-anchor:middle;" transform="matrix(1 0 0 1 2933.4 322)">Black</text>
  <line style="fill:none;stroke:black;opacity:1;stroke-width:0.5;" x1="263" x2="3036" y1="1903" y2="1903"/>
  <g transform="matrix(1 0 0 1 263 1933)">
   <path d="M9.24805 0.830078C13.5547 0.830078 17.1387-2.74414 17.1387-7.05078C17.1387-11.3574 13.5449-14.9316 9.23828-14.9316C4.94141-14.9316 1.36719-11.3574 1.36719-7.05078C1.36719-2.74414 4.95117 0.830078 9.24805 0.830078ZM9.24805-0.654297C5.70312-0.654297 2.87109-3.49609 2.87109-7.05078C2.87109-10.6055 5.69336-13.4473 9.23828-13.4473C12.793-13.4473 15.6445-10.6055 15.6445-7.05078C15.6445-3.49609 12.8027-0.654297 9.24805-0.654297ZM5.6543-7.05078C5.6543-6.62109 5.95703-6.32812 6.40625-6.32812L8.50586-6.32812L8.50586-4.20898C8.50586-3.76953 8.79883-3.4668 9.22852-3.4668C9.67773-3.4668 9.9707-3.76953 9.9707-4.20898L9.9707-6.32812L12.0898-6.32812C12.5293-6.32812 12.832-6.62109 12.832-7.05078C12.832-7.49023 12.5293-7.79297 12.0898-7.79297L9.9707-7.79297L9.9707-9.90234C9.9707-10.3516 9.67773-10.6543 9.22852-10.6543C8.79883-10.6543 8.50586-10.3516 8.50586-9.90234L8.50586-7.79297L6.40625-7.79297C5.95703-7.79297 5.6543-7.49023 5.6543-7.05078Z"/>
  </g>
  <g transform="matrix(1 0 0 1 281.867 1933)">
   <path d="M11.709 2.91016C17.1582 2.91016 21.6699-1.61133 21.6699-7.05078C21.6699-12.5 17.1484-17.0117 11.6992-17.0117C6.25977-17.0117 1.74805-12.5 1.74805-7.05078C1.74805-1.61133 6.26953 2.91016 11.709 2.91016ZM11.709 1.25C7.09961 1.25 3.41797-2.44141 3.41797-7.05078C3.41797-11.6602 7.08984-15.3516 11.6992-15.3516C16.3086-15.3516 20.0098-11.6602 20.0098-7.05078C20.0098-2.44141 16.3184 1.25 11.709 1.25ZM7.17773-7.05078C7.17773-6.57227 7.50977-6.25 8.00781-6.25L10.8789-6.25L10.8789-3.36914C10.8789-2.88086 11.2109-2.53906 11.6895-2.53906C12.1777-2.53906 12.5195-2.87109 12.5195-3.36914L12.5195-6.25L15.4004-6.25C15.8887-6.25 16.2305-6.57227 16.2305-7.05078C16.2305-7.53906 15.8887-7.88086 15.4004-7.88086L12.5195-7.88086L12.5195-10.752C12.5195-11.25 12.1777-11.5918 11.6895-11.5918C11.2109-11.5918 10.8789-11.25 10.8789-10.752L10.8789-7.88086L8.00781-7.88086C7.50977-7.88086 7.17773-7.53906 7.17773-7.05078Z"/>
  </g>
  <g transform="matrix(1 0 0 1 305.646 1933)">
   <path d="M14.9707 5.66406C21.9336 5.66406 27.6953-0.0976562 27.6953-7.05078C27.6953-14.0137 21.9238-19.7754 14.9609-19.7754C8.00781-19.7754 2.25586-14.0137 2.25586-7.05078C2.25586-0.0976562 8.01758 5.66406 14.9707 5.66406ZM14.9707 3.84766C8.93555 3.84766 4.08203-1.01562 4.08203-7.05078C4.08203-13.0957 8.92578-17.9492 14.9609-17.9492C21.0059-17.9492 25.8691-13.0957 25.8691-7.05078C25.8691-1.01562 21.0156 3.84766 14.9707 3.84766ZM9.19922-7.05078C9.19922-6.5332 9.57031-6.17188 10.1172-6.17188L14.0625-6.17188L14.0625-2.2168C14.0625-1.67969 14.4336-1.29883 14.9512-1.29883C15.4883-1.29883 15.8594-1.66992 15.8594-2.2168L15.8594-6.17188L19.8145-6.17188C20.3516-6.17188 20.7324-6.5332 20.7324-7.05078C20.7324-7.59766 20.3613-7.96875 19.8145-7.96875L15.8594-7.96875L15.8594-11.9141C15.8594-12.4609 15.4883-12.8418 14.9512-12.8418C14.4336-12.8418 14.0625-12.4609 14.0625-11.9141L14.0625-7.96875L10.1172-7.96875C9.57031-7.96875 9.19922-7.59766 9.19922-7.05078Z"/>
  </g>
  <text style="stroke:none;fill:black;font-family:sans-serif;font-size:13;font-weight:bold;" transform="matrix(1 0 0 1 263 1953)">Design Variations</text>
  <text style="stroke:none;fill:black;font-family:sans-serif;font-size:13;" transform="matrix(1 0 0 1 263 1971)">Symbols are supported in up to nine weights and three scales.</text>
  <text style="stroke:none;fill:black;font-family:sans-serif;font-size:13;" transform="matrix(1 0 0 1 263 1989)">For optimal layout with text and other symbols, vertically align</text>
  <text style="stroke:none;fill:black;font-family:sans-serif;font-size:13;" transform="matrix(1 0 0 1 263 2007)">symbols with the adjacent text.</text>
  <line style="fill:none;stroke:#00AEEF;stroke-width:0.5;opacity:1.0;" x1="776" x2="776" y1="1919" y2="1933"/>
  <g transform="matrix(1 0 0 1 776 1933)">
   <path d="M3.31055 0.15625C3.82812 0.15625 4.08203-0.0390625 4.26758-0.585938L5.52734-4.0332L11.2891-4.0332L12.5488-0.585938C12.7344-0.0390625 12.9883 0.15625 13.4961 0.15625C14.0137 0.15625 14.3457-0.15625 14.3457-0.644531C14.3457-0.810547 14.3164-0.966797 14.2383-1.17188L9.6582-13.3691C9.43359-13.9648 9.0332-14.2676 8.4082-14.2676C7.80273-14.2676 7.39258-13.9746 7.17773-13.3789L2.59766-1.16211C2.51953-0.957031 2.49023-0.800781 2.49023-0.634766C2.49023-0.146484 2.80273 0.15625 3.31055 0.15625ZM6.00586-5.51758L8.37891-12.0898L8.42773-12.0898L10.8008-5.51758Z"/>
  </g>
  <line style="fill:none;stroke:#00AEEF;stroke-width:0.5;opacity:1.0;" x1="793.197" x2="793.197" y1="1919" y2="1933"/>
  <text style="stroke:none;fill:black;font-family:sans-serif;font-size:13;font-weight:bold;" transform="matrix(1 0 0 1 776 1953)">Margins</text>
  <text style="stroke:none;fill:black;font-family:sans-serif;font-size:13;" transform="matrix(1 0 0 1 776 1971)">Leading and trailing margins on the left and right side of each symbol</text>
  <text style="stroke:none;fill:black;font-family:sans-serif;font-size:13;" transform="matrix(1 0 0 1 776 1989)">can be adjusted by modifying the x-location of the margin guidelines.</text>
  <text style="stroke:none;fill:black;font-family:sans-serif;font-size:13;" transform="matrix(1 0 0 1 776 2007)">Modifications are automatically applied proportionally to all</text>
  <text style="stroke:none;fill:black;font-family:sans-serif;font-size:13;" transform="matrix(1 0 0 1 776 2025)">scales and weights.</text>
  <g transform="matrix(1 0 0 1 1289 1933)">
   <path d="M2.8418 1.86523L4.54102 3.57422C5.40039 4.44336 6.38672 4.38477 7.31445 3.35938L18.0078-8.42773L17.041-9.4043L6.42578 2.27539C6.07422 2.67578 5.74219 2.77344 5.27344 2.30469L4.10156 1.14258C3.63281 0.683594 3.74023 0.341797 4.14062-0.0195312L15.6152-10.8203L14.6387-11.7871L3.04688-0.898438C2.06055 0.0195312 1.98242 0.996094 2.8418 1.86523ZM9.25781-16.3281C8.83789-15.918 8.80859-15.3418 9.04297-14.9512C9.27734-14.5898 9.73633-14.3555 10.3809-14.5215C11.8457-14.8633 13.3691-14.9219 14.7949-13.9844L14.209-12.5293C13.8672-11.6992 14.043-11.1133 14.5801-10.5664L16.875-8.25195C17.3633-7.76367 17.7734-7.74414 18.3398-7.8418L19.4043-8.03711L20.0684-7.36328L20.0293-6.80664C19.9902-6.30859 20.1172-5.92773 20.6055-5.44922L21.3672-4.70703C21.8457-4.22852 22.4609-4.19922 22.9297-4.66797L25.8398-7.58789C26.3086-8.05664 26.2891-8.65234 25.8105-9.13086L25.0391-9.89258C24.5605-10.3711 24.1895-10.5273 23.7109-10.4883L23.1348-10.4395L22.4902-11.0742L22.7344-12.1973C22.8613-12.7637 22.7051-13.2031 22.1191-13.7891L19.9219-15.9766C16.582-19.2969 12.1484-19.2188 9.25781-16.3281ZM10.752-15.957C13.1836-17.7344 16.4746-17.4316 18.7012-15.2051L21.1328-12.793C21.3672-12.5586 21.4062-12.373 21.3379-12.0312L21.0156-10.5469L22.5195-9.0625L23.5059-9.12109C23.7598-9.13086 23.8379-9.11133 24.0332-8.91602L24.6094-8.33984L22.168-5.89844L21.5918-6.47461C21.3965-6.66992 21.3672-6.74805 21.377-7.01172L21.4453-7.98828L19.9512-9.47266L18.4277-9.21875C18.1055-9.15039 17.959-9.17969 17.7148-9.41406L15.7129-11.416C15.459-11.6504 15.4297-11.8164 15.5859-12.1875L16.4648-14.2773C14.9023-15.7324 12.8711-16.3574 10.8398-15.7617C10.6836-15.7227 10.625-15.8496 10.752-15.957Z"/>
  </g>
  <text style="stroke:none;fill:black;font-family:sans-serif;font-size:13;font-weight:bold;" transform="matrix(1 0 0 1 1289 1953)">Exporting</text>
  <text style="stroke:none;fill:black;font-family:sans-serif;font-size:13;" transform="matrix(1 0 0 1 1289 1971)">Symbols should be outlined when exporting to ensure the</text>
  <text style="stroke:none;fill:black;font-family:sans-serif;font-size:13;" transform="matrix(1 0 0 1 1289 1989)">design is preserved when submitting to Xcode.</text>
  <text id="template-version" style="stroke:none;fill:black;font-family:sans-serif;font-size:13;text-anchor:end;" transform="matrix(1 0 0 1 3036 1933)">Template v.4.0</text>
  <text style="stroke:none;fill:black;font-family:sans-serif;font-size:13;text-anchor:end;" transform="matrix(1 0 0 1 3036 1951)">Requires Xcode 14 or greater</text>
  <text id="descriptive-name" style="stroke:none;fill:black;font-family:sans-serif;font-size:13;text-anchor:end;" transform="matrix(1 0 0 1 3036 1969)">Generated from gamecontroller.fill</text>
  <text style="stroke:none;fill:black;font-family:sans-serif;font-size:13;text-anchor:end;" transform="matrix(1 0 0 1 3036 1987)">Typeset at 100 points</text>
  <text style="stroke:none;fill:black;font-family:sans-serif;font-size:13;" transform="matrix(1 0 0 1 263 726)">Small</text>
  <text style="stroke:none;fill:black;font-family:sans-serif;font-size:13;" transform="matrix(1 0 0 1 263 1156)">Medium</text>
  <text style="stroke:none;fill:black;font-family:sans-serif;font-size:13;" transform="matrix(1 0 0 1 263 1586)">Large</text>
 </g>
 <g id="Guides">
  <g id="H-reference" style="fill:#27AAE1;stroke:none;" transform="matrix(1 0 0 1 339 696)">
   <path d="M0.993654 0L3.63775 0L29.3281-67.1323L30.0303-67.1323L30.0303-70.459L28.1226-70.459ZM11.6885-24.4799L46.9815-24.4799L46.2315-26.7285L12.4385-26.7285ZM55.1196 0L57.7637 0L30.6382-70.459L29.4326-70.459L29.4326-67.1323Z"/>
  </g>
  <line id="Baseline-S" style="fill:none;stroke:#27AAE1;opacity:1;stroke-width:0.5;" x1="263" x2="3036" y1="696" y2="696"/>
  <line id="Capline-S" style="fill:none;stroke:#27AAE1;opacity:1;stroke-width:0.5;" x1="263" x2="3036" y1="625.541" y2="625.541"/>
  <g id="H-reference" style="fill:#27AAE1;stroke:none;" transform="matrix(1 0 0 1 339 1126)">
   <path d="M0.993654 0L3.63775 0L29.3281-67.1323L30.0303-67.1323L30.0303-70.459L28.1226-70.459ZM11.6885-24.4799L46.9815-24.4799L46.2315-26.7285L12.4385-26.7285ZM55.1196 0L57.7637 0L30.6382-70.459L29.4326-70.459L29.4326-67.1323Z"/>
  </g>
  <line id="Baseline-M" style="fill:none;stroke:#27AAE1;opacity:1;stroke-width:0.5;" x1="263" x2="3036" y1="1126" y2="1126"/>
  <line id="Capline-M" style="fill:none;stroke:#27AAE1;opacity:1;stroke-width:0.5;" x1="263" x2="3036" y1="1055.54" y2="1055.54"/>
  <g id="H-reference" style="fill:#27AAE1;stroke:none;" transform="matrix(1 0 0 1 339 1556)">
   <path d="M0.993654 0L3.63775 0L29.3281-67.1323L30.0303-67.1323L30.0303-70.459L28.1226-70.459ZM11.6885-24.4799L46.9815-24.4799L46.2315-26.7285L12.4385-26.7285ZM55.1196 0L57.7637 0L30.6382-70.459L29.4326-70.459L29.4326-67.1323Z"/>
  </g>
  <line id="Baseline-L" style="fill:none;stroke:#27AAE1;opacity:1;stroke-width:0.5;" x1="263" x2="3036" y1="1556" y2="1556"/>
  <line id="Capline-L" style="fill:none;stroke:#27AAE1;opacity:1;stroke-width:0.5;" x1="263" x2="3036" y1="1485.54" y2="1485.54"/>
  <line id="left-margin-Ultralight-S" style="fill:none;stroke:#00AEEF;stroke-width:0.5;opacity:1.0;" x1="496.554" x2="496.554" y1="600.785" y2="720.121"/>
  <line id="right-margin-Ultralight-S" style="fill:none;stroke:#00AEEF;stroke-width:0.5;opacity:1.0;" x1="622.869" x2="622.869" y1="600.785" y2="720.121"/>
  <line id="left-margin-Regular-S" style="fill:none;stroke:#00AEEF;stroke-width:0.5;opacity:1.0;" x1="1384.44" x2="1384.44" y1="600.785" y2="720.121"/>
  <line id="right-margin-Regular-S" style="fill:none;stroke:#00AEEF;stroke-width:0.5;opacity:1.0;" x1="1515.25" x2="1515.25" y1="600.785" y2="720.121"/>
  <line id="left-margin-Black-S" style="fill:none;stroke:#00AEEF;stroke-width:0.5;opacity:1.0;" x1="2863.82" x2="2863.82" y1="600.785" y2="720.121"/>
  <line id="right-margin-Black-S" style="fill:none;stroke:#00AEEF;stroke-width:0.5;opacity:1.0;" x1="3002.98" x2="3002.98" y1="600.785" y2="720.121"/>
 </g>
 <g id="Symbols">
  <g id="Black-S" transform="matrix(1 0 0 1 2863.82 696)">
   <path class="monochrome-0 SFSymbolsPreview000000" d="M26.5137 3.07617C34.2285 3.07617 39.502-0.0488281 43.8477-4.10156L50.0488-9.81445C50.9766-10.6445 51.2695-10.9863 52.6367-10.9863L86.5234-10.9863C87.8906-10.9863 88.1836-10.6445 89.1113-9.81445L95.3125-4.10156C99.707-0.0976562 104.932 3.07617 112.646 3.07617C122.021 3.07617 129.395-2.88086 129.395-13.8672C129.395-18.75 128.564-24.0234 126.904-29.541C124.463-37.6953 120.312-48.5352 116.455-56.6406C113.037-63.7695 110.596-68.457 100.83-70.6543C92.6758-72.5098 82.0312-73.5352 69.5801-73.5352C57.1289-73.5352 46.4844-72.5098 38.3301-70.6543C28.5645-68.457 26.123-63.7695 22.7051-56.6406C18.8477-48.5352 14.6973-37.6953 12.2559-29.541C10.5957-24.0234 9.76562-18.75 9.76562-13.8672C9.76562-2.88086 17.1387 3.07617 26.5137 3.07617ZM37.1582-41.6504C37.1582-44.4824 39.1113-46.3379 42.041-46.3379L46.4844-46.3379L46.4844-50.4395C46.4844-53.4668 48.4863-55.5176 51.4648-55.5176C54.4434-55.5176 56.4453-53.4668 56.4453-50.4395L56.4453-46.3379L60.5957-46.3379C63.7207-46.3379 65.7715-44.4824 65.7715-41.6504C65.7715-38.8184 63.7207-36.9629 60.5957-36.9629L56.4453-36.9629L56.4453-32.8613C56.4453-29.834 54.4434-27.7832 51.4648-27.7832C48.4863-27.7832 46.4844-29.834 46.4844-32.8613L46.4844-36.9629L42.041-36.9629C39.1113-36.9629 37.1582-38.8184 37.1582-41.6504ZM87.5977-47.7539C87.5977-51.3672 90.4297-54.1504 93.9941-54.1504C97.6074-54.1504 100.391-51.3672 100.391-47.7539C100.391-44.1406 97.6074-41.4062 93.9941-41.4062C90.4297-41.4062 87.5977-44.1406 87.5977-47.7539ZM75.6836-35.498C75.6836-39.1113 78.5156-41.8945 82.0801-41.8945C85.6934-41.8945 88.4766-39.1113 88.4766-35.498C88.4766-31.9336 85.6934-29.1504 82.0801-29.1504C78.5156-29.1504 75.6836-31.9336 75.6836-35.498Z"/>
  </g>
  <g id="Regular-S" transform="matrix(1 0 0 1 1384.44 696)">
   <path class="monochrome-0 SFSymbolsPreview000000" d="M24.7559-0.146484C30.3223-0.146484 33.8379-2.09961 37.1582-6.15234L43.9941-14.4531C44.9219-15.5762 46.0938-16.1621 47.168-16.1621L83.5938-16.1621C84.7168-16.1621 85.8887-15.5762 86.8164-14.4531L93.6523-6.15234C96.9238-2.09961 100.439-0.146484 106.006-0.146484C115.039-0.146484 121.045-6.10352 121.045-15.332C121.045-19.1895 120.166-23.6816 118.701-28.6133C116.357-36.4258 112.256-47.1191 108.35-55.3223C105.029-62.3535 103.271-65.6738 94.9707-67.5293C87.8418-69.1406 77.8809-70.3125 65.3809-70.3125C52.9297-70.3125 42.9688-69.1406 35.8398-67.5293C27.5391-65.6738 25.7812-62.3535 22.4121-55.3223C18.5547-47.1191 14.4531-36.4258 12.1094-28.6133C10.6445-23.6816 9.76562-19.1895 9.76562-15.332C9.76562-6.10352 15.7715-0.146484 24.7559-0.146484ZM34.2773-42.8711C34.2773-45.0684 35.5957-46.4355 37.8906-46.4355L44.043-46.4355L44.043-52.2949C44.043-54.541 45.3125-55.9082 47.5098-55.9082C49.6582-55.9082 50.9277-54.541 50.9277-52.2949L50.9277-46.4355L56.6895-46.4355C59.1309-46.4355 60.5469-45.0684 60.5469-42.8711C60.5469-40.5762 59.1309-39.209 56.6895-39.209L50.9277-39.209L50.9277-33.3496C50.9277-31.1035 49.6582-29.7363 47.5098-29.7363C45.3125-29.7363 44.043-31.1035 44.043-33.3496L44.043-39.209L37.8906-39.209C35.5957-39.209 34.2773-40.5762 34.2773-42.8711ZM83.1055-48.877C83.1055-52.0996 85.5957-54.6387 88.7695-54.6387C92.041-54.6387 94.4824-52.0996 94.4824-48.877C94.4824-45.6543 92.041-43.1641 88.7695-43.1641C85.5957-43.1641 83.1055-45.6543 83.1055-48.877ZM72.0703-37.5977C72.0703-40.8691 74.6094-43.3594 77.7832-43.3594C81.0059-43.3594 83.4473-40.8691 83.4473-37.5977C83.4473-34.375 81.0059-31.9336 77.7832-31.9336C74.6094-31.9336 72.0703-34.375 72.0703-37.5977Z"/>
  </g>
  <g id="Ultralight-S" transform="matrix(1 0 0 1 496.554 696)">
   <path class="monochrome-0 SFSymbolsPreview000000" d="M22.44-2.37156C26.2808-2.37156 30.0689-4.09764 33.0259-7.69628L40.4068-16.6328C41.5615-18.0283 42.6426-18.5688 44.0801-18.5688L82.2315-18.5688C83.627-18.5688 84.708-18.0283 85.9082-16.6328L93.2891-7.69628C96.2427-4.09764 100.031-2.37156 103.872-2.37156C111.452-2.37156 116.549-7.55663 116.549-15.332C116.549-18.7808 115.625-22.8643 114.115-27.9321C111.771-35.79 107.715-46.3472 103.627-54.959C100.625-61.2183 99.1846-63.585 92.1099-65.2134C84.4361-66.961 74.3389-67.9058 63.1558-67.9058C51.9761-67.9058 41.8335-66.961 34.2051-65.2134C27.1304-63.585 25.6904-61.2183 22.6846-54.959C18.6001-46.3472 14.5439-35.79 12.2002-27.9321C10.6899-22.8643 9.76562-18.7808 9.76562-15.332C9.76562-7.55663 14.8633-2.37156 22.44-2.37156ZM33.0059-42.9619C33.0059-43.5698 33.5069-44.0742 34.167-44.0742L44.1338-44.0742L44.1338-54.4746C44.1338-55.1313 44.6314-55.6357 45.2393-55.6357C45.8438-55.6357 46.3413-55.1313 46.3413-54.4746L46.3413-44.0742L56.2808-44.0742C56.9512-44.0742 57.459-43.5698 57.459-42.9619C57.459-42.3472 56.9512-41.8428 56.2808-41.8428L46.3413-41.8428L46.3413-31.4424C46.3413-30.7856 45.8438-30.2812 45.2393-30.2812C44.6314-30.2812 44.1338-30.7856 44.1338-31.4424L44.1338-41.8428L34.167-41.8428C33.5069-41.8428 33.0059-42.3472 33.0059-42.9619ZM81.9702-48.877C81.9702-51.5093 84.0064-53.458 86.5899-53.458C89.1802-53.458 91.1675-51.5093 91.1675-48.877C91.1675-46.29 89.1802-44.3447 86.5899-44.3447C84.0064-44.3447 81.9702-46.29 81.9702-48.877ZM69.6636-37.189C69.6636-39.7793 71.7031-41.77 74.2412-41.77C76.8282-41.77 78.8609-39.7793 78.8609-37.189C78.8609-34.602 76.8282-32.6147 74.2412-32.6147C71.7031-32.6147 69.6636-34.602 69.6636-37.189Z"/>
  </g>
 </g>
</svg>
